<svg width="13" height="13" viewBox="0 0 13 13" fill="none" xmlns="http://www.w3.org/2000/svg">
<g clip-path="url(#clip0_197_128)">
<path d="M1.74365 11.9928C1.9302 12.5766 2.47132 12.9999 3.10842 12.9999H9.89135C10.5284 12.9999 11.0696 12.5766 11.2561 11.9928H1.74365Z" fill="#0D1C1F"/>
<path d="M10.9056 2.08871L9.23712 0.420245C9.16831 0.351411 9.09389 0.290728 9.01465 0.237915V2.30205C9.01465 2.34902 9.05299 2.38713 9.09999 2.38713H11.1349C11.073 2.27917 10.996 2.17913 10.9056 2.08871Z" fill="#0D1C1F"/>
<path d="M11.326 3.14902H9.10039C8.63312 3.14902 8.2532 2.7691 8.2532 2.30209V0.000507812C8.2433 0 8.23315 0 8.22324 0H3.10863C2.31782 0 1.67432 0.643525 1.67432 1.43457V5.34721H11.3261L11.326 3.14902Z" fill="#0D1C1F"/>
<path d="M6.50805 7.76074C6.27575 7.76074 6.15967 7.89128 6.15967 8.15219V9.1895C6.15967 9.45046 6.27575 9.58095 6.50805 9.58095C6.74292 9.58095 6.86035 9.45049 6.86035 9.1895V8.15219C6.86032 7.89128 6.74289 7.76074 6.50805 7.76074Z" fill="#0D1C1F"/>
<path d="M11.3754 6.10913H1.62454C1.09385 6.10913 0.662109 6.54087 0.662109 7.07156V10.2685C0.662109 10.7992 1.09385 11.231 1.62454 11.231H11.3754C11.9061 11.231 12.3379 10.7992 12.3379 10.2685V7.07156C12.3379 6.54087 11.9061 6.10913 11.3754 6.10913ZM5.19279 9.16606C5.19279 9.48446 5.10532 9.71798 4.93053 9.86672C4.75566 10.0155 4.52209 10.0898 4.22987 10.0898H3.53704C3.45873 10.0898 3.39478 10.0716 3.34524 10.0351C3.29565 9.99854 3.27084 9.95548 3.27084 9.90587V7.41243C3.27084 7.36289 3.29563 7.31983 3.34524 7.28327C3.39478 7.24676 3.45876 7.22848 3.53704 7.22848H4.22987C4.52209 7.22848 4.75569 7.30287 4.93053 7.45161C5.10532 7.60035 5.19279 7.83394 5.19279 8.15226V9.16606ZM7.47094 9.18955C7.47094 9.50795 7.38347 9.74146 7.20868 9.8902C7.03384 10.0389 6.80024 10.1133 6.50802 10.1133C6.21837 10.1133 5.98607 10.0389 5.81128 9.8902C5.63641 9.74146 5.54902 9.50795 5.54902 9.18955V8.15224C5.54902 7.83389 5.63641 7.60032 5.81128 7.45158C5.98607 7.30285 6.21837 7.22845 6.50802 7.22845C6.80024 7.22845 7.03384 7.30285 7.20868 7.45158C7.38347 7.60032 7.47094 7.83392 7.47094 8.15224V9.18955ZM8.79785 9.58099C8.8709 9.58099 8.93156 9.56926 8.97985 9.54578C9.02809 9.52229 9.06267 9.48647 9.08357 9.43812C9.10442 9.38988 9.11813 9.35004 9.12468 9.31873C9.13115 9.28743 9.13702 9.24434 9.14227 9.18957C9.15268 9.06694 9.25318 9.00559 9.44369 9.00559C9.55586 9.00559 9.63549 9.02583 9.68246 9.06625C9.72943 9.10672 9.75289 9.18307 9.75289 9.29525C9.75289 9.54839 9.6609 9.74801 9.47692 9.89414C9.29297 10.0403 9.05742 10.1134 8.7704 10.1134C8.49113 10.1134 8.26477 10.039 8.09125 9.89023C7.91768 9.74149 7.83095 9.50797 7.83095 9.18957V8.15226C7.83095 7.83392 7.91768 7.60035 8.09125 7.45161C8.26477 7.30287 8.49113 7.22848 8.7704 7.22848C9.05742 7.22848 9.29297 7.29767 9.47692 7.43594C9.6609 7.5743 9.75289 7.76475 9.75289 8.00744C9.75289 8.11966 9.72941 8.19599 9.68246 8.23643C9.63549 8.27691 9.55721 8.29709 9.4476 8.29709C9.25189 8.29709 9.15012 8.23582 9.14227 8.11311C9.13445 7.87825 9.01832 7.76082 8.79389 7.76082C8.55903 7.76082 8.44159 7.89135 8.44159 8.15226V9.18957C8.44165 9.45051 8.56035 9.58099 8.79785 9.58099Z" fill="#0D1C1F"/>
<path d="M4.22973 7.76074H3.88135V9.55743H4.22973C4.4646 9.55743 4.58203 9.42698 4.58203 9.16599V8.15219C4.58203 7.89128 4.4646 7.76074 4.22973 7.76074Z" fill="#0D1C1F"/>
</g>
<defs>
<clipPath id="clip0_197_128">
<rect width="13" height="13" fill="white"/>
</clipPath>
</defs>
</svg>
