<svg width="20" height="15" viewBox="0 0 20 15" fill="none" xmlns="http://www.w3.org/2000/svg">
<path d="M3.71886 7.84321L2.69287 7.29602V11.0713C2.698 11.075 2.70381 11.0785 2.70894 11.0822C2.77495 10.5183 3.18056 10.0607 3.71886 9.92082V7.84321Z" fill="#F9F6CE"/>
<path d="M9.53311 4.74234C9.91087 4.74234 10.2171 4.58922 10.2171 4.40034C10.2171 4.21147 9.91087 4.05835 9.53311 4.05835C9.15535 4.05835 8.84912 4.21147 8.84912 4.40034C8.84912 4.58922 9.15535 4.74234 9.53311 4.74234Z" fill="#F9F6CE"/>
<path d="M8.2927 4.83407C8.21268 4.70241 8.16514 4.55672 8.16514 4.40043C8.16514 3.82519 8.76602 3.37445 9.53312 3.37445C10.3002 3.37445 10.9011 3.82519 10.9011 4.40043C10.9011 4.97566 10.3002 5.42641 9.53312 5.42641C9.29167 5.42641 9.07006 5.37784 8.87512 5.2985L4.63814 7.55805L9.53312 10.1685L19.0662 5.08441L9.53312 0L0 5.08441L3.91174 7.17057L8.2927 4.83407Z" fill="#F9F6CE"/>
<path d="M4.06094 12.6084C3.88482 12.6084 3.71758 12.5721 3.563 12.5112C3.43954 13.0085 3.37695 13.5177 3.37695 14.0317V14.791L3.56608 14.8853C3.87216 15.0382 4.25007 15.0382 4.55615 14.8853L4.74493 14.791V14.0317C4.74493 13.5177 4.68235 13.0085 4.55889 12.5112C4.40431 12.5721 4.23707 12.6084 4.06094 12.6084Z" fill="#F9F6CE"/>
<path d="M9.53276 10.8982C9.47736 10.8982 9.4223 10.8849 9.37168 10.8582L4.40283 8.20812V9.92082C4.99141 10.0737 5.42882 10.6045 5.42882 11.2402C5.42882 11.5528 5.31938 11.8377 5.14223 12.0685C5.18498 12.2149 5.22396 12.3616 5.25714 12.51C6.55706 13.0271 7.92538 13.2922 9.32791 13.2922H9.73728C12.121 13.2922 14.4701 12.5046 16.3723 11.0713V7.29602L9.69384 10.8582C9.64323 10.8849 9.58817 10.8982 9.53276 10.8982Z" fill="#F9F6CE"/>
<path d="M4.06094 11.9242C4.4387 11.9242 4.74493 11.618 4.74493 11.2403C4.74493 10.8625 4.4387 10.5563 4.06094 10.5563C3.68319 10.5563 3.37695 10.8625 3.37695 11.2403C3.37695 11.618 3.68319 11.9242 4.06094 11.9242Z" fill="#F9F6CE"/>
</svg>
