<svg width="15" height="15" viewBox="0 0 15 15" fill="none" xmlns="http://www.w3.org/2000/svg">
<g clip-path="url(#clip0_192_9)">
<path d="M13.9938 3.91879C13.3232 2.76968 12.4134 1.85993 11.2644 1.18933C10.1153 0.518702 8.86071 0.183472 7.49988 0.183472C6.13922 0.183472 4.88425 0.518805 3.73532 1.18933C2.58621 1.8599 1.67653 2.76968 1.00586 3.91879C0.335299 5.06786 0 6.32266 0 7.68315C0 9.3174 0.4768 10.787 1.43064 12.0922C2.38437 13.3976 3.61646 14.3008 5.12679 14.8021C5.3026 14.8347 5.43274 14.8117 5.51736 14.7338C5.60202 14.6557 5.64429 14.558 5.64429 14.4409C5.64429 14.4214 5.64262 14.2457 5.63937 13.9136C5.63602 13.5815 5.63444 13.2918 5.63444 13.0446L5.40983 13.0835C5.26662 13.1097 5.08595 13.1209 4.86784 13.1177C4.64982 13.1147 4.4235 13.0918 4.18917 13.0493C3.95473 13.0072 3.73669 12.9096 3.53485 12.7566C3.33312 12.6036 3.18991 12.4033 3.10525 12.1561L3.0076 11.9314C2.94251 11.7818 2.84004 11.6156 2.70004 11.4334C2.56004 11.2511 2.41848 11.1275 2.27526 11.0624L2.20689 11.0134C2.16133 10.9809 2.11906 10.9417 2.07996 10.8961C2.0409 10.8506 2.01166 10.8051 1.99213 10.7594C1.97256 10.7138 1.98877 10.6763 2.04093 10.6469C2.0931 10.6176 2.18736 10.6033 2.32414 10.6033L2.51938 10.6325C2.64959 10.6586 2.81065 10.7365 3.00278 10.8668C3.1948 10.997 3.35265 11.1662 3.47636 11.3744C3.62617 11.6414 3.80667 11.8449 4.01835 11.9849C4.22987 12.1249 4.44313 12.1948 4.65793 12.1948C4.87273 12.1948 5.05825 12.1785 5.21456 12.1461C5.3707 12.1135 5.51719 12.0646 5.65397 11.9995C5.71256 11.5631 5.87209 11.2279 6.13242 10.9936C5.76137 10.9546 5.42778 10.8959 5.13148 10.8178C4.83534 10.7396 4.52932 10.6127 4.21362 10.4367C3.89775 10.261 3.63572 10.0429 3.42745 9.78257C3.21915 9.52214 3.0482 9.18024 2.91484 8.75718C2.78141 8.33394 2.71468 7.84572 2.71468 7.29237C2.71468 6.50449 2.97189 5.83403 3.48621 5.28061C3.24528 4.68827 3.26803 4.02424 3.55452 3.28859C3.74332 3.22993 4.02331 3.27395 4.39435 3.42037C4.76546 3.56687 5.03718 3.69236 5.20977 3.79641C5.38236 3.90042 5.52065 3.98857 5.62483 4.06005C6.23041 3.89085 6.85535 3.80623 7.49981 3.80623C8.14428 3.80623 8.76935 3.89085 9.37496 4.06005L9.74604 3.82579C9.99979 3.66948 10.2995 3.52623 10.6443 3.39602C10.9893 3.26588 11.2532 3.23003 11.4356 3.28869C11.7284 4.02438 11.7545 4.68837 11.5135 5.28071C12.0278 5.83413 12.2851 6.50476 12.2851 7.29247C12.2851 7.84582 12.2181 8.33558 12.0849 8.76207C11.9515 9.18862 11.7791 9.53018 11.5676 9.78746C11.3558 10.0447 11.0921 10.2612 10.7764 10.4369C10.4607 10.6127 10.1545 10.7396 9.8584 10.8177C9.56212 10.8959 9.22853 10.9547 8.85749 10.9938C9.1959 11.2866 9.36514 11.7489 9.36514 12.3803V14.4407C9.36514 14.5577 9.40585 14.6554 9.48732 14.7335C9.56869 14.8115 9.69719 14.8344 9.873 14.8018C11.3835 14.3006 12.6156 13.3973 13.5693 12.0919C14.5229 10.7867 14.9999 9.31713 14.9999 7.68287C14.9996 6.32256 14.6641 5.06786 13.9938 3.91879Z" fill="#0D1C1F"/>
</g>
<defs>
<clipPath id="clip0_192_9">
<rect width="15" height="15" fill="white"/>
</clipPath>
</defs>
</svg>
